{
  "streams": [
    {
      "index": 0,
      "codec_name": "hevc",
      "codec_long_name": "H.265 / HEVC (High Efficiency Video Coding)",
      "profile": "Main 10",
      "codec_type": "video",
      "codec_tag_string": "[0][0][0][0]",
      "codec_tag": "0x0000",
      "width": 1920,
      "height": 1080,
      "coded_width": 1920,
      "coded_height": 1080,
      "has_b_frames": 2,
      "sample_aspect_ratio": "1:1",
      "display_aspect_ratio": "16:9",
      "pix_fmt": "yuv420p10le",
      "level": 120,
      "color_range": "tv",
      "chroma_location": "left",
      "view_ids_available": "",
      "view_pos_available": "",
      "r_frame_rate": "24000/1001",
      "avg_frame_rate": "24000/1001",
      "time_base": "1/1000",
      "start_pts": 0,
      "start_time": "0.000000",
      "extradata_size": 113,
      "disposition": {
        "default": 1,
        "dub": 0,
        "original": 0,
        "comment": 0,
        "lyrics": 0,
        "karaoke": 0,
        "forced": 0,
        "hearing_impaired": 0,
        "visual_impaired": 0,
        "clean_effects": 0,
        "attached_pic": 0,
        "timed_thumbnails": 0,
        "non_diegetic": 0,
        "captions": 0,
        "descriptions": 0,
        "metadata": 0,
        "dependent": 0,
        "still_image": 0,
        "multilayer": 0
      },
      "tags": {
        "title": "Sample",
        "BPS": "4999939",
        "DURATION": "01:21:47.278000000",
        "NUMBER_OF_FRAMES": "117657",
        "NUMBER_OF_BYTES": "3067011599",
        "_STATISTICS_WRITING_APP": "mkvmerge v57.0.0 ('Till The End') 64-bit",
        "_STATISTICS_WRITING_DATE_UTC": "2021-10-23 11:36:41",
        "_STATISTICS_TAGS": "BPS DURATION NUMBER_OF_FRAMES NUMBER_OF_BYTES"
      }
    },
    {
      "index": 1,
      "codec_name": "aac",
      "codec_long_name": "AAC (Advanced Audio Coding)",
      "profile": "LC",
      "codec_type": "audio",
      "codec_tag_string": "[0][0][0][0]",
      "codec_tag": "0x0000",
      "mime_codec_string": "mp4a.40.2",
      "sample_fmt": "fltp",
      "sample_rate": "48000",
      "channels": 6,
      "channel_layout": "5.1",
      "bits_per_sample": 0,
      "initial_padding": 0,
      "r_frame_rate": "0/0",
      "avg_frame_rate": "0/0",
      "time_base": "1/1000",
      "start_pts": 20,
      "start_time": "0.020000",
      "extradata_size": 2,
      "disposition": {
        "default": 1,
        "dub": 0,
        "original": 0,
        "comment": 0,
        "lyrics": 0,
        "karaoke": 0,
        "forced": 0,
        "hearing_impaired": 0,
        "visual_impaired": 0,
        "clean_effects": 0,
        "attached_pic": 0,
        "timed_thumbnails": 0,
        "non_diegetic": 0,
        "captions": 0,
        "descriptions": 0,
        "metadata": 0,
        "dependent": 0,
        "still_image": 0,
        "multilayer": 0
      },
      "tags": {
        "language": "fre",
        "title": "FR AAC 5.1",
        "BPS": "591040",
        "DURATION": "01:21:46.986000000",
        "NUMBER_OF_FRAMES": "230015",
        "NUMBER_OF_BYTES": "362528156",
        "_STATISTICS_WRITING_APP": "mkvmerge v57.0.0 ('Till The End') 64-bit",
        "_STATISTICS_WRITING_DATE_UTC": "2021-10-23 11:36:41",
        "_STATISTICS_TAGS": "BPS DURATION NUMBER_OF_FRAMES NUMBER_OF_BYTES"
      }
    },
    {
      "index": 2,
      "codec_name": "aac",
      "codec_long_name": "AAC (Advanced Audio Coding)",
      "profile": "LC",
      "codec_type": "audio",
      "codec_tag_string": "[0][0][0][0]",
      "codec_tag": "0x0000",
      "mime_codec_string": "mp4a.40.2",
      "sample_fmt": "fltp",
      "sample_rate": "48000",
      "channels": 6,
      "channel_layout": "5.1",
      "bits_per_sample": 0,
      "initial_padding": 0,
      "r_frame_rate": "0/0",
      "avg_frame_rate": "0/0",
      "time_base": "1/1000",
      "start_pts": 20,
      "start_time": "0.020000",
      "extradata_size": 2,
      "disposition": {
        "default": 0,
        "dub": 0,
        "original": 1,
        "comment": 0,
        "lyrics": 0,
        "karaoke": 0,
        "forced": 0,
        "hearing_impaired": 0,
        "visual_impaired": 0,
        "clean_effects": 0,
        "attached_pic": 0,
        "timed_thumbnails": 0,
        "non_diegetic": 0,
        "captions": 0,
        "descriptions": 0,
        "metadata": 0,
        "dependent": 0,
        "still_image": 0,
        "multilayer": 0
      },
      "tags": {
        "language": "jpn",
        "title": "JP AAC 5.1",
        "BPS": "533807",
        "DURATION": "01:21:46.986000000",
        "NUMBER_OF_FRAMES": "230015",
        "NUMBER_OF_BYTES": "327423352",
        "_STATISTICS_WRITING_APP": "mkvmerge v57.0.0 ('Till The End') 64-bit",
        "_STATISTICS_WRITING_DATE_UTC": "2021-10-23 11:36:41",
        "_STATISTICS_TAGS": "BPS DURATION NUMBER_OF_FRAMES NUMBER_OF_BYTES"
      }
    },
    {
      "index": 3,
      "codec_name": "ass",
      "codec_long_name": "ASS (Advanced SSA) subtitle",
      "codec_type": "subtitle",
      "codec_tag_string": "[0][0][0][0]",
      "codec_tag": "0x0000",
      "r_frame_rate": "0/0",
      "avg_frame_rate": "0/0",
      "time_base": "1/1000",
      "start_pts": 0,
      "start_time": "0.000000",
      "duration_ts": 4907278,
      "duration": "4907.278000",
      "extradata_size": 889,
      "disposition": {
        "default": 1,
        "dub": 0,
        "original": 0,
        "comment": 0,
        "lyrics": 0,
        "karaoke": 0,
        "forced": 1,
        "hearing_impaired": 0,
        "visual_impaired": 0,
        "clean_effects": 0,
        "attached_pic": 0,
        "timed_thumbnails": 0,
        "non_diegetic": 0,
        "captions": 0,
        "descriptions": 0,
        "metadata": 0,
        "dependent": 0,
        "still_image": 0,
        "multilayer": 0
      },
      "tags": {
        "language": "fre",
        "title": "FR Forced ASS",
        "BPS": "7",
        "DURATION": "01:05:13.160000000",
        "NUMBER_OF_FRAMES": "61",
        "NUMBER_OF_BYTES": "3494",
        "_STATISTICS_WRITING_APP": "mkvmerge v57.0.0 ('Till The End') 64-bit",
        "_STATISTICS_WRITING_DATE_UTC": "2021-10-23 11:36:41",
        "_STATISTICS_TAGS": "BPS DURATION NUMBER_OF_FRAMES NUMBER_OF_BYTES"
      }
    },
    {
      "index": 4,
      "codec_name": "ass",
      "codec_long_name": "ASS (Advanced SSA) subtitle",
      "codec_type": "subtitle",
      "codec_tag_string": "[0][0][0][0]",
      "codec_tag": "0x0000",
      "r_frame_rate": "0/0",
      "avg_frame_rate": "0/0",
      "time_base": "1/1000",
      "start_pts": 0,
      "start_time": "0.000000",
      "duration_ts": 4907278,
      "duration": "4907.278000",
      "extradata_size": 889,
      "disposition": {
        "default": 0,
        "dub": 0,
        "original": 0,
        "comment": 0,
        "lyrics": 0,
        "karaoke": 0,
        "forced": 0,
        "hearing_impaired": 0,
        "visual_impaired": 0,
        "clean_effects": 0,
        "attached_pic": 0,
        "timed_thumbnails": 0,
        "non_diegetic": 0,
        "captions": 0,
        "descriptions": 0,
        "metadata": 0,
        "dependent": 0,
        "still_image": 0,
        "multilayer": 0
      },
      "tags": {
        "language": "fre",
        "title": "FR Full ASS",
        "BPS": "83",
        "DURATION": "01:17:26.340000000",
        "NUMBER_OF_FRAMES": "878",
        "NUMBER_OF_BYTES": "48337",
        "_STATISTICS_WRITING_APP": "mkvmerge v57.0.0 ('Till The End') 64-bit",
        "_STATISTICS_WRITING_DATE_UTC": "2021-10-23 11:36:41",
        "_STATISTICS_TAGS": "BPS DURATION NUMBER_OF_FRAMES NUMBER_OF_BYTES"
      }
    },
    {
      "index": 5,
      "codec_name": "mjpeg",
      "codec_long_name": "Motion JPEG",
      "profile": "Progressive",
      "codec_type": "video",
      "codec_tag_string": "[0][0][0][0]",
      "codec_tag": "0x0000",
      "width": 1000,
      "height": 1500,
      "coded_width": 1000,
      "coded_height": 1500,
      "has_b_frames": 0,
      "sample_aspect_ratio": "1:1",
      "display_aspect_ratio": "2:3",
      "pix_fmt": "yuvj420p",
      "level": -99,
      "color_range": "pc",
      "color_space": "bt470bg",
      "chroma_location": "center",
      "r_frame_rate": "90000/1",
      "avg_frame_rate": "0/0",
      "time_base": "1/90000",
      "start_pts": 0,
      "start_time": "0.000000",
      "duration_ts": 441655020,
      "duration": "4907.278000",
      "bits_per_raw_sample": "8",
      "disposition": {
        "default": 0,
        "dub": 0,
        "original": 0,
        "comment": 0,
        "lyrics": 0,
        "karaoke": 0,
        "forced": 0,
        "hearing_impaired": 0,
        "visual_impaired": 0,
        "clean_effects": 0,
        "attached_pic": 1,
        "timed_thumbnails": 0,
        "non_diegetic": 0,
        "captions": 0,
        "descriptions": 0,
        "metadata": 0,
        "dependent": 0,
        "still_image": 0,
        "multilayer": 0
      },
      "tags": {
        "filename": "Cover",
        "mimetype": "image/jpeg"
      }
    },
    {
      "index": 6,
      "codec_name": "ttf",
      "codec_long_name": "TrueType font",
      "codec_type": "attachment",
      "codec_tag_string": "[0][0][0][0]",
      "codec_tag": "0x0000",
      "r_frame_rate": "0/0",
      "avg_frame_rate": "0/0",
      "time_base": "1/90000",
      "start_pts": 0,
      "start_time": "0.000000",
      "duration_ts": 441655020,
      "duration": "4907.278000",
      "extradata_size": 211260,
      "disposition": {
        "default": 0,
        "dub": 0,
        "original": 0,
        "comment": 0,
        "lyrics": 0,
        "karaoke": 0,
        "forced": 0,
        "hearing_impaired": 0,
        "visual_impaired": 0,
        "clean_effects": 0,
        "attached_pic": 0,
        "timed_thumbnails": 0,
        "non_diegetic": 0,
        "captions": 0,
        "descriptions": 0,
        "metadata": 0,
        "dependent": 0,
        "still_image": 0,
        "multilayer": 0
      },
      "tags": {
        "filename": "verdanab.ttf",
        "mimetype": "application/x-truetype-font"
      }
    },
    {
      "index": 7,
      "codec_name": "ttf",
      "codec_long_name": "TrueType font",
      "codec_type": "attachment",
      "codec_tag_string": "[0][0][0][0]",
      "codec_tag": "0x0000",
      "r_frame_rate": "0/0",
      "avg_frame_rate": "0/0",
      "time_base": "1/90000",
      "start_pts": 0,
      "start_time": "0.000000",
      "duration_ts": 441655020,
      "duration": "4907.278000",
      "extradata_size": 229800,
      "disposition": {
        "default": 0,
        "dub": 0,
        "original": 0,
        "comment": 0,
        "lyrics": 0,
        "karaoke": 0,
        "forced": 0,
        "hearing_impaired": 0,
        "visual_impaired": 0,
        "clean_effects": 0,
        "attached_pic": 0,
        "timed_thumbnails": 0,
        "non_diegetic": 0,
        "captions": 0,
        "descriptions": 0,
        "metadata": 0,
        "dependent": 0,
        "still_image": 0,
        "multilayer": 0
      },
      "tags": {
        "filename": "verdanaz.ttf",
        "mimetype": "application/x-truetype-font"
      }
    }
  ],
  "format": {
    "filename": "/tmp/sample_hevc10.mkv",
    "nb_streams": 8,
    "nb_programs": 0,
    "nb_stream_groups": 0,
    "format_name": "matroska,webm",
    "format_long_name": "Matroska / WebM",
    "start_time": "0.000000",
    "duration": "4907.278000",
    "size": "3759600585",
    "bit_rate": "6129019",
    "probe_score": 100,
    "tags": {
      "title": "Perfect Blue (1997)",
      "encoder": "libebml v1.4.2 + libmatroska v1.6.4",
      "creation_time": "2021-10-23T11:36:41.000000Z"
    }
  }
}